<svg width="50" height="40" viewBox="0 0 50 40" fill="none" xmlns="http://www.w3.org/2000/svg">
<path d="M12.4899 0C7.91158 0 3.61443 1.28513 0 3.53411V39.076C3.65459 36.8271 7.91158 35.5419 12.4899 35.5419C17.0682 35.5419 21.3653 36.8271 24.9798 39.076V3.53411C21.3653 1.28513 17.0682 0 12.4899 0Z" />
<path d="M37.5101 0C32.9318 0 28.6347 1.28513 25.0203 3.53411V8.07224C28.6749 5.82325 32.9318 4.53812 37.5101 4.53812C40.2812 4.53812 42.972 5.02005 45.4619 5.90357V32.3693C42.972 31.4857 40.2812 31.0038 37.5101 31.0038C32.9318 31.0038 28.6347 32.2889 25.0203 34.5379V39.0359C28.6749 36.7869 32.9318 35.5419 37.5101 35.5419C42.0884 35.5419 46.3856 36.8271 50 39.076V3.53411C46.3454 1.28513 42.0884 0 37.5101 0Z" />
<path d="M37.5104 10.9234C33.8558 10.9234 30.402 11.7668 27.2695 13.2126V17.7507C30.3619 16.2648 33.8156 15.4616 37.5104 15.4616C39.4783 15.4616 41.3658 15.7025 43.173 16.1443V11.6062C41.3658 11.1644 39.4783 10.9234 37.5104 10.9234Z" />
<path d="M43.173 20.6832C41.3658 20.2414 39.4381 20.0005 37.5104 20.0005C33.8558 20.0005 30.402 20.8438 27.2695 22.2896V26.8277C30.3619 25.3418 33.8156 24.5386 37.5104 24.5386C39.4783 24.5386 41.3658 24.7796 43.173 25.2213V20.6832Z" />
</svg>
