<svg width="50" height="36" viewBox="0 0 50 36" fill="none" xmlns="http://www.w3.org/2000/svg">
<path d="M25.0221 25.0214C29.1728 25.0214 32.5376 21.6566 32.5376 17.506C32.5376 13.3553 29.1728 9.99049 25.0221 9.99049C20.8714 9.99049 17.5066 13.3553 17.5066 17.506C17.5066 21.6566 20.8714 25.0214 25.0221 25.0214Z" />
<path d="M4.99557 0C2.25464 0 0 2.25464 0 4.99558V30.0177C0 32.7586 2.25464 35.0133 4.99557 35.0133H45.0044C47.7454 35.0133 50 32.7586 50 30.0177V4.99558C50 2.25464 47.7454 0 45.0044 0H4.99557ZM24.9779 30.0177C18.0813 30.0177 12.4669 24.4032 12.4669 17.5066C12.4669 10.6101 18.0813 4.99558 24.9779 4.99558C31.8745 4.99558 37.489 10.6101 37.489 17.5066C37.489 24.4032 31.9187 30.0177 24.9779 30.0177Z" />
</svg>
